<svg xmlns="http://www.w3.org/2000/svg" width="355.888" height="449.391" viewBox="0 0 355.888 449.391">
  <g id="body" transform="translate(219.226 473.411) rotate(-160)">
    <g id="Head" transform="translate(69.486 0.27)">
      <g id="Head-2" data-name="Head" transform="translate(51.221 29.212)">
        <path id="Head-3" data-name="Head" d="M0,68.788,7.837,32.5C3.467,27.4.508,21.157,1,14.158,2.427-6.007,30.684-1.571,36.18,8.607S41.023,44.6,33.92,46.421c-2.833.725-8.868-1.051-15.011-4.73l3.856,27.1Z" transform="translate(0 0)" fill="#b28b67"/>
      </g>
      <path id="hair" d="M74.373,20.715a25.73,25.73,0,0,0-1.221-4.032,18.831,18.831,0,0,0-2.4-4.427,33.545,33.545,0,0,0-6.335-6.828C60.073,1.9,54.537-.129,49.093.531A15.792,15.792,0,0,0,41.406,3.64c-2.052,1.566-4.025,3.872-6.682,4.038-2.891.18-5.541-2.355-7.859-3.92A21.194,21.194,0,0,0,18.414.206,14.1,14.1,0,0,0,4.96,5.259C1.207,9.7-1.522,16.208.943,22.09a7.545,7.545,0,0,0,1.894,2.779c.776.7,1.961,1.446,2.275,2.565.334,1.19-.664,2.725-1.051,3.8a11.115,11.115,0,0,0-.848,4.825A12.414,12.414,0,0,0,7.05,43.23,12.784,12.784,0,0,0,13.667,46.6a18.687,18.687,0,0,0,4.978.381A15.581,15.581,0,0,0,21,46.516a2.142,2.142,0,0,1,1.875.453,15.461,15.461,0,0,0,9.914,2.441c2.991-.248,6.439-.968,8.879-3,2.71-2.261,2.656-5.38,2.018-8.711.676.333,2.545.539,1.428-.787a6.057,6.057,0,0,0-1.846-1.048,6.712,6.712,0,0,1-1.846-1.411c-2.073-2.369.021-7.189,2.626-7.983,3.87-1.18,4.737,4.258,7.5,5.664,1.589.809,3.25-.3,4.441-1.425a17.652,17.652,0,0,0,3.619-5.554c.773-1.679,1.492-3.381,2.279-5.051.368-.78,1.641-2.985,1-3.867,2.772-.549,5.86.6,8.247,2.1a5.618,5.618,0,0,1,2.266,2.4c.113.235.358.932.666.961.574.053.359-.643.3-.975" transform="translate(15.176 21.673)" fill="#191847"/>
    </g>
    <g id="Bottom_Skinny_Jeans_1" data-name="Bottom/Skinny Jeans 1" transform="translate(0.274 174.326)">
      <path id="Leg" d="M0,0,45.517,120.307l31.9,88.672H95.613L51.758,0Z" transform="translate(121.173)" fill="#1f28cf"/>
      <path id="Leg-2" data-name="Leg" d="M73,0c-.495,41.28-.137,96.856-1.29,99.429S0,158.065,0,158.065l9.377,15.927s83.772-53.962,88.055-61.152S123.232,39.492,134.427,0Z" transform="translate(36.92)" fill="#2b44ff"/>
      <g id="Left_Shoe" data-name="Left Shoe" transform="translate(49.431 144.47) rotate(50)">
        <path id="Shoe" d="M0,21,1,0H22C36.936,10.5,61,17,61,17v4H23L10,19v2Z" transform="translate(0 19)" fill="#191847"/>
      </g>
      <g id="Right_Shoe" data-name="Right Shoe" transform="translate(196.907 188.176)">
        <path id="Shoe-2" data-name="Shoe" d="M0,19.858.947,0h19.88c14.14,9.929,36.92,16.075,36.92,16.075v3.782H21.773L9.467,17.967v1.891Z" transform="translate(0 17.967)" fill="#191847"/>
      </g>
    </g>
    <g id="Body-2" data-name="Body" transform="translate(19.374 77.147)">
      <path id="Skin" d="M29.747,77.743c-1.171-2.229-2.526-4.458-7.017-3.588C14.691,75.713,7.7,80.425.657,73.207c-.866-.888-1.394-3.547,1.778-4.731,7.9-2.949,19.648-8.631,21.627-10.973C28.109,52.713,54.154,0,54.154,0l16.4,4.172S37.621,59.593,35.332,62.751C31.9,67.488,34.39,76.63,35.237,81.42a6.288,6.288,0,0,1-1.1.1C31.6,81.525,30.741,79.634,29.747,77.743ZM210.756,49.171,181.834,34.719l7.8-15.994,28.534,24.22A81.11,81.11,0,0,1,238.041,52.6c1.21,1.27,2.606,3.768-2.728,2.981s-10.979-1.376-11.847.4,2.224,4.2.556,6.563a.7.7,0,0,1-.605.309Q220.839,62.86,210.756,49.171Z" transform="matrix(0.998, -0.07, 0.07, 0.998, -5.301, 75.127)" fill="#b28b67"/>
      <path id="Back_Arm" data-name="Back Arm" d="M3.483,54.027C-1.118,45.173.439,15.094,0,4.151L10.11,0C24.2,29.168,43.277,57.153,71.609,81.057a32.372,32.372,0,0,1,12.624,1.891,4.261,4.261,0,0,1,.045,8.057q1.3.948,2.621,1.887l-7.607,15.549C47.28,92.46,17.193,80.412,3.483,54.027Z" transform="translate(120.593 1.932)" fill="#69a1ac"/>
      <path id="Shirt" d="M0,106.207s44.579,4.9,70.176,0c2.114-.4,2.021-9.531,1.041-12.023C55.949,55.371,45.9,26.958,45.9,0,41.7,2.2,31.2.659,31.2.659,12.371,28.44,3.717,60.316,0,106.207Z" transform="translate(85.078 1.612)" fill="#191847"/>
      <path id="Coat_Front" data-name="Coat Front" d="M57.456,112.41a4.252,4.252,0,0,1-1.279-3.842l.495-2.806a4.257,4.257,0,0,1,3.686-3.487q.475-2.129.817-4.23c1.788-11.083-.962-21.963-1.19-32.659C47.325,76.678,32,96.368,19.067,130.5l-17.854-5.26q1.023-3.807,2.144-7.494c-2.067-1.14-4.5-6.555-2.763-7.459a20.859,20.859,0,0,1,5.848-2C32.711,33.114,86.588,0,86.588,0H97.34c-3.165,41.913,40.555,133.417,25.374,211.566-11.883,2.657-25.917.688-41.111-1.282-20.686-2.68-43.52-5.361-66,3.631C17.053,182.445,46.115,145.473,57.456,112.41Z" transform="translate(22.099 0)" fill="#89c5cc"/>
      <path id="Shade_Lapel" data-name="Shade Lapel" d="M8.718,0,3.841,15.017l9.821,11.258L4.786,35.121,26.26,71.936,0,35.195l8.718-8.92L0,16.326Z" transform="translate(103.874 0.947)" fill="rgba(0,0,0,0.1)"/>
      <path id="Buttons" d="M5.672,47.327a3.781,3.781,0,1,1,3.781,3.786A3.784,3.784,0,0,1,5.672,47.327Zm-.945-21.77a3.781,3.781,0,1,1,3.781,3.786A3.783,3.783,0,0,1,4.727,25.556ZM0,3.786A3.781,3.781,0,1,1,3.781,7.572,3.784,3.784,0,0,1,0,3.786Z" transform="translate(120.055 79.508)" fill="rgba(0,0,0,0.4)"/>
    </g>
  </g>
</svg>
