<svg xmlns="http://www.w3.org/2000/svg" width="339.593" height="428.397" viewBox="0 0 339.593 428.397">
  <g id="greeting-image2" transform="matrix(0.985, -0.174, 0.174, 0.985, -9.704, 35.186)">
    <g id="Head" transform="translate(76.38 0.485)">
      <g id="Head-2" data-name="Head" transform="translate(51.221 29.212)">
        <path id="Head-3" data-name="Head" d="M0,68.788,7.837,32.5C3.467,27.4.508,21.157,1,14.158,2.427-6.007,30.684-1.571,36.18,8.607S41.023,44.6,33.92,46.421c-2.833.725-8.868-1.051-15.011-4.73l3.856,27.1Z" transform="translate(0 0)" fill="#b28b67"/>
      </g>
      <path id="hair" d="M139.874,32.684c-3-.489-11.079-.825-12.569-.825-.952,0-1.984.216-2.548-.652-.462-.711-.293-1.914-.43-2.739-.16-.959-.387-1.905-.617-2.849a28.856,28.856,0,0,0-3.028-7.641A23.586,23.586,0,0,0,109.476,7.9,36.2,36.2,0,0,0,92.463,5.575c-6.106.492-11.633,2.494-17.4,4.379a36.691,36.691,0,0,1-16.994,1.626c-5.789-.883-10.164-4-15.047-6.959C38.025,1.591,32.312-.39,26.4.065A32.138,32.138,0,0,0,11.24,5.776C6.973,8.6,3.451,12.007,1.463,16.8-.676,21.947-.674,27.6,2.843,32.155c5.1,6.6,14.562,8.306,22.436,8.136a43.119,43.119,0,0,0,13.327-2.426c5.734-2,10.69-5.4,16.054-8.155a41.938,41.938,0,0,1,7.848-3.12c2.647-.743,5.254-1.083,7.651.505a36.192,36.192,0,0,0,7.708,4.383,25,25,0,0,0,8.694,1.551c5.768-.044,11.453-1.83,17.055-3.025,4.568-.975,9.456-1.947,14.113-1.009,1.943.391,4.782,1.2,5.484,3.205C111.4,34.326,106.76,48.84,110.09,59.495c1.8,5.751,12.6,12.473,16.8,9.45,2.661-1.915,1.046-4.43,0-6.09-2-3.179-2.688-7.262,1.018-9.475,3.2-1.909,6.557,2.624,6.62,2.619.878-.069,8.469-4.334,13.7-10.557,5.159.3,5.942-3.076,4.71-5.84S144.019,33.36,139.874,32.684Z" transform="translate(-65.449 -6.596)" fill="#191847"/>
    </g>
    <g id="Bottom" transform="translate(0.274 173.326)">
      <path id="Leg" d="M98.427.052C80.344,14.8,87.294,144.173,86.087,145.8c-.8,1.085-86,18.434-86,18.434l2.457,10.014s99.666-4.9,105.471-12.294c8.311-10.592,20.5-118.508,20.5-118.508Z" transform="matrix(0.574, -0.819, 0.819, 0.574, 53.925, 80.597)" fill="#b28b67"/>
      <path id="Pant" d="M.084,160.3l4.327,16.129c49.533,5.716,82.182-1.31,93.669-12.241S118.63,46.007,118.63,46.007L86.447.046C43.4,32.525,69.125,138.937,68.026,141.371S40.807,145.716.084,160.3Z" transform="matrix(0.574, -0.819, 0.819, 0.574, 59.676, 70.844)" fill="#2f3676"/>
      <g id="Right_Show" data-name="Right Show" transform="translate(190.814 149.457) rotate(20)">
        <path id="shoe" d="M4.474,5.033A2,2,0,0,0,1.908,6.381L0,13.106A64.242,64.242,0,0,0,.9,21H57.3s2.2-7.268-2.538-7.848-7.87-1.047-7.87-1.047L20.68.419a1,1,0,0,0-1.332.532L17.663,5.039s-4.385,2.046-7.127,2.046Z" transform="translate(1 19)" fill="#e4e4e4"/>
      </g>
      <path id="Leg-2" data-name="Leg" d="M97.132,0,48.146,117.47,0,216.781H11.359L135.636,0Z" transform="translate(25.935)" fill="#997659"/>
      <g id="Left_Shot" data-name="Left Shot" transform="translate(22.72 188.176)">
        <path id="shoe-2" data-name="shoe" d="M4.235,4.777A1.894,1.894,0,0,0,1.807,6.052L0,12.411a60.682,60.682,0,0,0,.853,7.465H54.247s2.081-6.873-2.4-7.421-7.45-.99-7.45-.99L19.577.414a.947.947,0,0,0-1.261.5l-1.6,3.865S12.57,6.717,9.975,6.717Z" transform="translate(0.947 17.948)" fill="#e4e4e4"/>
      </g>
      <path id="Pant-2" data-name="Pant" d="M0,196.15l25.24,4.728C44.756,172.219,126.429,54.705,135.384,0H79.194C49.289,39.546,18.6,167.016,0,196.15Z" transform="translate(30.282 0)" fill="#5c63ab"/>
    </g>
    <g id="Body" transform="translate(19.374 76.147)">
      <path id="Skin" d="M30.05,110.05c-1.289-2.171-2.754-4.34-7.205-3.234C14.9,108.792,8.167,113.86.76,107.024c-.91-.84-1.577-3.467,1.528-4.815,7.735-3.357,19.163-9.642,21.016-12.083q3.792-4.992,23.5-57l19.371,3.848Q36.95,91.5,34.83,94.776c-3.181,4.908-.213,13.9.883,18.638a5.961,5.961,0,0,1-1.349.169C32.033,113.583,31.1,111.817,30.05,110.05ZM185.281,28.98l34.252-15.062A81.188,81.188,0,0,1,236.917.267c1.671-.532,4.525-.693,1.48,3.761s-6.049,9.277-4.832,10.838,4.742-.162,6.135,2.377q1.394,2.539-17.827,6.074L196.218,43.009Z" transform="translate(1.891 44.487)" fill="#b28b67"/>
      <path id="Coat_Back" data-name="Coat Back" d="M0,2.112,8.021,0c19.244,15.676,30.1,56.43,42.4,60.875,11.629,4.2,27.032-2.2,45.271-10.612l6.9,12.4C87.1,82.692,52.021,101.539,36.465,93.892,11.593,81.667,1.673,31.1,0,2.112Z" transform="matrix(0.996, 0.087, -0.087, 0.996, 120.895, 2.943)" fill="#db2721"/>
      <path id="Shirt" d="M0,107.9H72.327c3.3,0,2.682-4.778,2.2-7.19C69.018,72.886,47.494,42.888,47.494,3.276L26.631,0C9.375,27.788,3.408,62,0,107.9Z" transform="translate(85.078)" fill="#dde3e9"/>
      <path id="Coat_Front" data-name="Coat Front" d="M0,134.273Q14.648,43.31,84.84,0H93.1s28.094,95.888,15.49,127.781H43.484c1.03-15.558,4.333-32.01,8.857-48.053Q30.224,119.673,15.16,137.246Z" transform="translate(25.523)" fill="#ff4133"/>
    </g>
  </g>
</svg>
