<svg xmlns="http://www.w3.org/2000/svg" width="793.052" height="1073.522" viewBox="0 0 793.052 1073.522">
  <g id="greeting-image1" transform="translate(0 -0.478)">
    <g id="Head" transform="matrix(0.848, 0.53, -0.53, 0.848, 466.665, 0.478)">
      <g id="Head-2" data-name="Head" transform="translate(134.267 77.07)">
        <path id="Head-3" data-name="Head" d="M0,181.485l20.543-95.74C9.087,72.3,1.332,55.818,2.627,37.354c3.735-53.2,77.805-41.5,92.212-14.647s12.7,94.966-5.923,99.766C81.489,124.387,65.669,119.7,49.568,110l10.107,71.49Z" transform="translate(0 0)" fill="#915b3c"/>
      </g>
      <path id="hair" d="M-47.12,59.422c-1.927-1.91-2.979-4.636-3.888-7.224a73.061,73.061,0,0,1-2.489-8.2C-54.75,38.4-54.762,31.972-50.772,27.63c3.2-3.482,8-5.044,12.431-5.383a22.846,22.846,0,0,1,8.814,1.117c2.808.923,5.228,2.762,7.95,3.9.1-6.026,1.136-12.331,4.194-17.477A17.426,17.426,0,0,1-4.409,1.327,25.73,25.73,0,0,1,11.4,4.51c1.229.665,2.446,1.361,3.612,2.149a10.123,10.123,0,0,0,3.135,1.723c1.276.3,1.909-.437,2.738-1.368a20.806,20.806,0,0,1,3.227-2.905C29.235.341,35.961-1.208,41.9,1.05a16.532,16.532,0,0,1,7.254,5.243c1.655,2.171,2.835,5.614,5.119,7.126.969.642,1.654-.209,2.536-.837,1.326-.945,2.59-1.987,3.931-2.906a18.006,18.006,0,0,1,6.11-2.762c3.2-.74,7.619-.567,8.533,3.622a17.287,17.287,0,0,1-.031,4.841c-.152,2.177-.311,4.353-.5,6.526a47.117,47.117,0,0,1-.636,4.865c-.166.864-.686,2.474-.316,3.339.463,1.081,2.6.467,3.513.5a13.882,13.882,0,0,1,5.281,1.161,5.683,5.683,0,0,1,3.2,2.956,5.31,5.31,0,0,1,.089,2.78,8.29,8.29,0,0,0,.169,2.852c2.422-1.192,10.814-3.842,11.87.5.352,1.445-.449,3.078-1.06,4.3a37.238,37.238,0,0,1-3.912,5.954A53.236,53.236,0,0,1,82.628,61.216,6.826,6.826,0,0,1,84.41,72.65a8.46,8.46,0,0,1-6.213,1.8,13.737,13.737,0,0,0-2.568-.2,6.142,6.142,0,0,1-1.164.392,34.635,34.635,0,0,1-9.528-1.209,31.419,31.419,0,0,1-14.532-7.6,4.481,4.481,0,0,0-3.361-1.543c-1.25.013-2.476.355-3.725.387-3.3.084-6.283-1.531-9.35-2.605A35.272,35.272,0,0,1,30.9,74.505c-1.383,3.04-4.27,3.482-7.106,3.749-9.072.853-18.176-.1-27.259-.086,8.793,1.987,17.879,2.806,26.594,5.145,3.939,1.057.931,3.711-.753,5.552a32,32,0,0,0-6.266,10.741c-4.3-5.606-11.9-9.3-18.64-7.578-7.442,1.9-12.683,11.966-7.924,19.2,2.763,4.2,7.752,5.821,11.9,7.626-3.239,3.367-4.022,8.34-5.972,12.528-.961,2.066-2.311,4.4-4.461,5.121a5.217,5.217,0,0,0-2.356.938c-.777.8-.963,1.7-1.955,2.39-3.961,2.754-10.149,2.542-13.661-1.052-3.175-3.25-2.349-8.393.3-11.688-4.221-1.759-11.912-4.022-10.235-10.6-9.147-.607-31.357-15.441-19.08-26.28C-62.7,86.4-68.89,77.1-64.562,68.9c3.333-6.316,11.083-9.14,17.442-9.474" transform="translate(157.997 37.292)" fill="#191847"/>
    </g>
    <g id="Bottom" transform="translate(0 480)">
      <path id="Skirt_Shadow" data-name="Skirt Shadow" d="M0,39.183S89.48,64.2,154.4,64.2s120.6-38.522,120.6-38.522S187.441,0,130.779,0,0,39.183,0,39.183Z" transform="translate(242.221 204.601)" fill="#1f28cf"/>
      <path id="Leg" d="M149.864,292.835a14.056,14.056,0,0,1-1.446-2.823C140.444,268.937,12.724,41.569,0,0H143.794c9.674,31.605,53.217,229.945,59.345,269.516,19.335,62.42,59.143,264.575,64.225,278.58,5.346,14.733-24.734,30.08-32.75,11.968C221.86,531.245,191.47,451.5,177.939,402.812,165.253,357.165,154.924,316.1,149.864,292.835Z" transform="translate(298.4)" fill="#784931"/>
      <path id="Leg-2" data-name="Leg" d="M305.44,320.595c-58.391,14.75-271.974,41.416-286.631,45.6-15.077,4.3-28.3-26.759-9.661-33.488C38.8,322,120.511,297.263,170.052,287.168c39.848-8.12,76.21-14.745,100.622-18.625C268.606,200.005,259.152,35.525,265.349,0H392.58c-5.942,34.066-56.174,282.629-65.51,307.509-2.963,8.883-11.8,12.808-21.63,13.086Z" transform="translate(25.18 0)" fill="#915b3c"/>
      <g id="Left_Shoe" data-name="Left Shoe" transform="matrix(0.174, 0.985, -0.985, 0.174, 96.731, 306.918)">
        <path id="shoe" d="M4.474,5.033A2,2,0,0,0,1.908,6.381L0,13.106A64.242,64.242,0,0,0,.9,21H57.3s2.2-7.268-2.538-7.848-7.87-1.047-7.87-1.047L20.68.419a1,1,0,0,0-1.332.532L17.663,5.039s-4.385,2.046-7.127,2.046Z" transform="translate(1 19)" fill="#e4e4e4"/>
      </g>
      <g id="Right_Shoe" data-name="Right Shoe" transform="translate(517.227 494.586)">
        <path id="shoe-2" data-name="shoe" d="M11.124,12.015a4.974,4.974,0,0,0-6.379,3.351L0,32.079C0,38.8,2.241,51.7,2.241,51.7H142.494s5.467-18.064-6.312-19.5-19.57-2.6-19.57-2.6L51.424.548a2.487,2.487,0,0,0-3.311,1.323L43.923,12.03s-10.9,5.085-17.721,5.085Z" transform="translate(2.487 47.715)" fill="#e4e4e4"/>
      </g>
      <path id="Skirt" d="M58.087,11.226s84.1-24.049,159.147,0c17.407,79.376,59.7,110.88,67.14,232.577-84.547,41.987-188.987-29.945-276.02,11C-16.513,197.531,18.3,59.6,58.087,11.226Z" transform="translate(232.853 -11.226)" fill="#2b44ff"/>
    </g>
    <g id="Body" transform="translate(199.723 153.537) rotate(21)">
      <path id="Skin" d="M3.046,223.137c-2.771-1.709-5.8-8.143,1.526-13.17,18.268-12.527,44.59-34.45,48.148-41.667C59.994,153.54,84.768,9.676,84.768,9.676l51.879.206S88.6,165.01,84.768,174.5c-5.744,14.238,6.413,35.923,11.61,47.576-8.193,3.667-12-1.014-16.168-5.7-4.442-4.99-9.3-9.979-20.317-4.851-14.1,6.563-25.762,16.978-39.66,16.977C14.919,228.5,9.275,226.981,3.046,223.137Zm443.646-139.6-73.13-43.12L396.919,0l70.328,68.614q30.693,13.092,50.3,28.915c2.94,3.546,6.14,10.339-7.688,7.3s-28.512-5.615-31.111-1.12S483.8,115.1,479,120.987a1.817,1.817,0,0,1-1.473.7Q470.908,121.692,446.691,83.541Z" transform="translate(84.812 221.275)" fill="#915b3c"/>
      <path id="Coat_Back" data-name="Coat Back" d="M0,5.54,21.065,0q67.3,133.146,214.783,233.869l-61.958,90.3C72.791,225.155,6.584,119.666,0,5.54Z" transform="matrix(0.996, 0.087, -0.087, 0.996, 317.496, 7.72)" fill="#191847"/>
      <path id="Shirt" d="M0,283.042H191.159S124.728,121.5,124.728,8.592L67.065,0C21.747,72.892,8.949,162.636,0,283.042Z" transform="translate(223.433)" fill="#dde3e9"/>
      <path id="Coat_Front" data-name="Coat Front" d="M0,364.974C20.907,129.1,152.689,0,152.689,0l.045.04.022-.04h3.765c6.757.232,20.58.838,20.58.838l13.933,39.824c2.212,72.828,25.822,293.54,25.822,293.54H91.732q.319,15.178,1.442,30.772Z" transform="translate(136.542 0)" fill="#2f3676"/>
      <path id="Shade" d="M35.013,122.9H.154A634.391,634.391,0,0,1,9.586,0c2.02,26.315,4.848,49.442,8.41,68.738,4.541,24.6,10.266,42.821,17.015,54.154Z" transform="translate(228.141 212.286)" fill="rgba(0,0,0,0.1)"/>
      <path id="Light" d="M0,28.728,61.789,0V28.728Z" transform="translate(255.982 229.486)" fill="rgba(255,255,255,0.2)"/>
    </g>
  </g>
</svg>
