<svg xmlns="http://www.w3.org/2000/svg" width="425.575" height="376" viewBox="0 0 425.575 376">
  <g id="legs" transform="translate(-66.922 -78.692) rotate(-17)">
    <g id="Bottom" transform="translate(10.362 195)">
      <path id="Leg" d="M153.848,0,73.35,134.622,13,248.434H0L101.119,0Z" transform="translate(42.455 0)" fill="#997659"/>
      <path id="Pant" d="M25.068,230.21,0,222.624s16.475-49.266,40.384-108.432S91.74,0,91.74,0h70.8s-30.514,69.607-64.7,126.493S25.068,230.21,25.068,230.21Z" transform="translate(47.146 0)" fill="#db2721"/>
      <path id="Leg-2" data-name="Leg" d="M52.957,0c7.6,47.307,22.251,107.748,23.634,109.613q1.383,1.865,99.57,33.376l-2.808,11.466q-117.088-16.9-123.391-26.222C43.66,118.91,12.189,45.258,0,0Z" transform="translate(148.636 0)" fill="#b28b67"/>
      <path id="Pant-2" data-name="Pant" d="M157.267,133.077l-4.946,18.468Q64.746,159.228,45,140.441T0,0H67.514q16,99.618,17.894,103.8T157.267,133.077Z" transform="translate(144.521)" fill="#ff4133"/>
      <g id="Left_Shoe" data-name="Left Shoe" transform="matrix(-0.899, 0.438, -0.438, -0.899, 62.026, 242.797)">
        <path id="shoe" d="M6.338-1.4A2,2,0,0,1,5.1-2.377a2,2,0,0,1-.139-1.571L7.143-10.59a64.241,64.241,0,0,1,5.16-6.041L59.061,14.907s-2.24,7.256-6.493,5.087-7.11-3.533-7.11-3.533L17.193,11.492a1,1,0,0,1-.807-1.186l.889-4.331S14.784,1.827,12.511.293Z" transform="translate(0 0)" fill="#e4e4e4"/>
      </g>
      <g id="Left_Shoe-2" data-name="Left Shoe" transform="translate(318.271 134.386) rotate(65)">
        <path id="shoe-2" data-name="shoe" d="M6.338-1.4A2,2,0,0,1,5.1-2.377a2,2,0,0,1-.139-1.571L7.143-10.59a64.241,64.241,0,0,1,5.16-6.041L59.061,14.907s-2.24,7.256-6.493,5.087-7.11-3.533-7.11-3.533L17.193,11.492a1,1,0,0,1-.807-1.186l.889-4.331S14.784,1.827,12.511.293Z" transform="translate(0 0)" fill="#e4e4e4"/>
      </g>
    </g>
  </g>
</svg>
