<svg xmlns="http://www.w3.org/2000/svg" width="604.039" height="334.002" viewBox="0 0 604.039 334.002">
  <g id="name-image1" transform="translate(-670.706 -642.032)">
    <g id="Group_8" data-name="Group 8" transform="translate(912.358 642.032)">
      <g id="Group_2" data-name="Group 2" transform="translate(0 66.49)">
        <g id="Group" transform="translate(0 0)">
          <g id="Head" transform="translate(45.34 0)">
            <g id="Head-2" data-name="Head" transform="translate(10.655 19.147)">
              <path id="Head-3" data-name="Head" d="M0,51.777,5.856,24.463C2.59,20.627.379,15.925.749,10.657,1.813-4.521,22.928-1.182,27.035,6.479s3.619,27.094-1.688,28.463c-2.117.546-6.625-.791-11.217-3.56l2.881,20.4Z" transform="translate(0 0)" fill="#b28b67"/>
            </g>
            <path id="hair" d="M30.936,17.288a22.186,22.186,0,0,0-7.118-.787,12.259,12.259,0,0,0,.867-6.193,18.828,18.828,0,0,0-2.008-5.6,7.661,7.661,0,0,0-1.485-2.316A5.07,5.07,0,0,0,18.79,1.1a6.425,6.425,0,0,0-2.767,0c-.4.085-.763.269-1.158.371s-.6-.148-.893-.4A5.058,5.058,0,0,0,11.333.044a6.8,6.8,0,0,0-3,.36,5.874,5.874,0,0,0-2.5,1.6,4.2,4.2,0,0,0-.749,1.15c-.073.175-.085.278-.259.342s-.349.063-.515.117A6.484,6.484,0,0,0,.583,7,10.726,10.726,0,0,0,0,11.4c.057,1.835,1.713,6.625,3.262,8.372a10.4,10.4,0,0,0,5.376,3.039,15.4,15.4,0,0,0-2.81,5.243A25.671,25.671,0,0,0,4.54,34.421,20.8,20.8,0,0,0,4.859,40.7a6.8,6.8,0,0,0,3.04,4.43,14.517,14.517,0,0,0,2.34,1.1A15.4,15.4,0,0,0,12.65,47a4.834,4.834,0,0,0,4.579-.98,8.6,8.6,0,0,0,1.231-1.565c.114-.2.183-.327.044-.52a3.719,3.719,0,0,0-.648-.59A6.113,6.113,0,0,1,15.7,39.3c-.192-1.661.252-3.806,1.868-4.531,1.993-.9,4.186.132,5.958,1.09a9.748,9.748,0,0,1,4.721-6.271c2.679-1.348,5.752-1.507,8.509-2.664a5.077,5.077,0,0,0,1.975-1.258,2.559,2.559,0,0,0,.568-.929,1.506,1.506,0,0,0-.394-1.168C37.728,21.724,33.261,18,30.936,17.288Z" transform="translate(0.034 -0.007)" fill="#191847"/>
          </g>
          <g id="Bottom" transform="translate(0 130.504)">
            <g id="Seat" transform="translate(0 19.15)">
              <ellipse id="Ballsy_Ball" data-name="Ballsy Ball" cx="54.577" cy="52.132" rx="54.577" ry="52.132" transform="translate(0)" fill="#c5cfd6"/>
            </g>
            <path id="Skin" d="M89.713,45.688C85.2,29.866,81.763,15.942,80.9,10.743c-2.07-12.4,15.921-13.12,18.3-6.957,3.6,9.326,9.882,39.969,17.432,86.253L108,92.559C98.917,72.444,92.349,54.929,89.713,45.688ZM2.658,29.434c8.333-3.3,37.512-13.611,51.585-16.528,4.044-.839,7.963-1.618,11.649-2.322,10.954-2.092,16.629,17.682,6.079,19.2C45.7,33.568,8.452,37.48,5.265,37.916a4.058,4.058,0,0,1-.551.038C.531,37.954-2.36,31.419,2.658,29.434Z" transform="translate(49.713 22.815)" fill="#b28b67"/>
            <path id="Leg_Back" data-name="Leg Back" d="M45.192,30.307a9.224,9.224,0,0,1-.122-2.35L0,5V0H5.359S70.764,16.678,72.2,21.376c.01.033.019.063.027.1s.043.059.063.089c8.644,11.892,13.818,69.952,15.515,74.3L71.249,98.336C64.918,74.833,44.654,58.458,45.192,30.307Z" transform="translate(77.258)" fill="#1f28cf"/>
            <path id="Leg_Front" data-name="Leg Front" d="M22.027,46.266,35.64,41.593c-4.123-.826-7.921-1.564-11.168-2.133C3.48,35.776-2.641,24.531.978,0H39.651C45.969,1.816,78.8,15.594,95.833,22.921c11.273,4.85,7.72,22.336,1.335,26.884a.624.624,0,0,1-.354.554c-23.622,9.8-43.845,9.32-57.127,8.844-6.031-.216-10.629-.432-13.464.315Z" transform="translate(45.363)" fill="#2b44ff"/>
            <g id="Right_Shoe" data-name="Right Shoe" transform="translate(57.244 47.326) rotate(64.024)">
              <path id="shoe" d="M2.823,2.966A1.262,1.262,0,0,0,1.2,3.817L0,8.06a40.534,40.534,0,0,0,.568,4.981H36.154s1.388-4.586-1.6-4.952-4.966-.661-4.966-.661L13.048.055a.631.631,0,0,0-.84.336L11.145,2.97a14.3,14.3,0,0,1-4.5,1.291Z" transform="translate(0 0)" fill="#e4e4e4"/>
            </g>
            <g id="Right_Shoe-2" data-name="Right Shoe" transform="translate(152.389 107.337)">
              <path id="shoe-2" data-name="shoe" d="M3.171,3.666a1.417,1.417,0,0,0-1.818.957L0,9.392a45.6,45.6,0,0,0,.639,5.6H40.615s1.558-5.155-1.8-5.566-5.578-.742-5.578-.742L14.658.394a.709.709,0,0,0-.946.379L12.52,3.67A16.057,16.057,0,0,1,7.469,5.121Z" transform="translate(0 -0.331)" fill="#e4e4e4"/>
            </g>
          </g>
          <g id="Body_Long_Sleeve_1" data-name="Body/Long Sleeve 1" transform="translate(3.659 52.828)">
            <path id="Skin-2" data-name="Skin" d="M.869,61.553c-.791-.488-1.658-2.326.436-3.762,5.216-3.578,12.731-9.843,13.746-11.9C17.128,41.672,24.2.574,24.2.574L39.013.631S25.295,44.948,24.2,47.659c-1.641,4.068,1.83,10.262,3.314,13.591-2.339,1.047-3.426-.29-4.616-1.627-1.268-1.425-2.654-2.851-5.8-1.388-4.026,1.877-7.354,4.853-11.322,4.852A9.2,9.2,0,0,1,.869,61.553ZM128.4,21.654l-22.39-9.29,5-12.364,22.609,16.614A60.765,60.765,0,0,1,148.987,22.8c.972.883,2.145,2.68-1.883,2.371s-8.284-.455-8.84.921,1.883,3.02.757,4.877a.534.534,0,0,1-.49.264Q136.544,31.228,128.4,21.654Z" transform="translate(0 67.896)" fill="#b28b67"/>
            <path id="Coat_Back" data-name="Coat Back" d="M0,1.582,6.014,0C30.381,17.6,42.977,54.41,72.489,71.91L66.53,80.785C17.836,79.031,1.882,34.186,0,1.582Z" transform="translate(66.432 4.698) rotate(4.992)" fill="#e87613"/>
            <path id="Shirt" d="M0,80.858H54.23c2.478,0,2.011-3.581,1.653-5.388C51.749,54.618,35.611,32.139,35.611,2.454L19.968,0C7.03,20.822,2.555,46.461,0,80.858Z" transform="translate(39.577 2.492)" fill="#dde3e9"/>
            <path id="Coat_Front" data-name="Coat Front" d="M.072,113.14C-1.179,72.655,14.139,41.5,26.957,22.714a8.225,8.225,0,0,1-7.04-4.328C14.2,8.063,16.265,2.379,22.379.511S33.935,2.491,43.67,2.491a7.582,7.582,0,0,1,1.161.083l5.191.3S71.1,74.345,61.646,98.244H18.781A136.151,136.151,0,0,1,11.7,113.139Z" transform="translate(14.697 0.001)" fill="#ff9b21"/>
            <path id="Shade" d="M16.021,25.921H0C2.938,18.86,6.179,10.139,9.633,0c1.439,12.493,3.587,21.216,6.387,25.921Z" transform="translate(33.479 72.324)" fill="rgba(0,0,0,0.1)"/>
          </g>
        </g>
      </g>
      <g id="Group_2-2" data-name="Group 2" transform="translate(175.402 0)">
        <g id="Head-4" data-name="Head" transform="translate(69.86 0)">
          <g id="Head-5" data-name="Head" transform="translate(0 26.973)">
            <path id="Head-6" data-name="Head" d="M0,0,5.865,27.336C2.595,31.175.379,35.881.75,41.152,1.817,56.345,22.962,53,27.075,45.334S30.7,18.219,25.384,16.849c-2.12-.546-6.637.792-11.231,3.563L17.036,0Z" transform="translate(29.813 51.819) rotate(180)" fill="#b28b67"/>
          </g>
          <path id="hair-2" data-name="hair" d="M10.159,24.621C12.4,24.253,18.449,24,19.564,24c.712,0,1.485.163,1.907-.492.346-.536.219-1.442.322-2.063.12-.722.29-1.435.462-2.145a21.821,21.821,0,0,1,2.266-5.756,17.692,17.692,0,0,1,8.389-7.593A26.962,26.962,0,0,1,45.641,4.2c4.569.37,8.707,1.879,13.02,3.3A27.287,27.287,0,0,0,71.379,8.723c4.332-.666,7.606-3.014,11.26-5.242A20.975,20.975,0,0,1,95.078.049a23.955,23.955,0,0,1,11.347,4.3,18.529,18.529,0,0,1,7.319,8.3c1.6,3.88,1.6,8.139-1.033,11.57-3.815,4.971-10.9,6.257-16.79,6.129a32.08,32.08,0,0,1-9.974-1.83c-4.291-1.509-8-4.068-12.014-6.144a31.264,31.264,0,0,0-5.873-2.35c-1.981-.56-3.932-.816-5.725.379a27.031,27.031,0,0,1-5.768,3.3,18.6,18.6,0,0,1-6.506,1.169C45.744,24.843,41.49,23.5,37.3,22.6c-3.421-.731-7.079-1.46-10.564-.757-1.451.295-3.579.9-4.1,2.414,8.84,1.6,12.313,12.535,9.82,20.562-1.346,4.335-9.434,9.4-12.577,7.119-1.992-1.443-.782-3.337,0-4.587,1.5-2.4,2.012-5.47-.762-7.138-2.392-1.438-4.907,1.977-4.954,1.973-.657-.052-6.336-3.265-10.252-7.953-3.862.229-4.447-2.317-3.525-4.4S7.059,25.13,10.159,24.621Z" transform="translate(2.287 0)" fill="#191847"/>
        </g>
        <g id="Bottom-2" data-name="Bottom" transform="translate(36.042 162.08)">
          <path id="Leg" d="M49.723,0,23.051,87.368l-12.92,74.3H0L13.653,0Z" transform="translate(26.485)" fill="#997659"/>
          <path id="Leg-2" data-name="Leg" d="M40.185,0c-1.812,47.97.321,72.713.726,77.071s5.958,32.617,19.1,86.06l-10.8-3.714C28.445,110.4,21.366,84.928,18.983,78.492S10.273,45.892,0,0Z" transform="translate(45.565)" fill="#b28b67"/>
          <g id="Left_Shoe" data-name="Left Shoe" transform="translate(66.626 155.052)">
            <path id="shoe-3" data-name="shoe" d="M37.806,3.67a1.417,1.417,0,0,1,1.818.958L40.977,9.4a45.706,45.706,0,0,1-.639,5.606H.361S-1.2,9.847,2.16,9.436s5.578-.743,5.578-.743L26.319.394a.709.709,0,0,1,.946.379l1.194,2.9A16.057,16.057,0,0,0,33.51,5.126Z" transform="translate(0 -0.331)" fill="#e4e4e4"/>
          </g>
          <g id="Right_Shoe-3" data-name="Right Shoe" transform="translate(0 155.052)">
            <path id="shoe-4" data-name="shoe" d="M37.806,3.67a1.417,1.417,0,0,1,1.818.958L40.977,9.4a45.706,45.706,0,0,1-.639,5.606H.361S-1.2,9.847,2.16,9.436s5.578-.743,5.578-.743L26.319.394a.709.709,0,0,1,.946.379l1.194,2.9A16.057,16.057,0,0,0,33.51,5.126Z" transform="translate(0 -0.331)" fill="#e4e4e4"/>
          </g>
          <path id="Bottom-3" data-name="Bottom" d="M45.979,0,34.64,44.513H0L5.164,0Z" transform="translate(33.773)" fill="#69a1ac"/>
          <path id="Bottom-4" data-name="Bottom" d="M43.314,0c5.6,16.81,2.127,44.513,2.127,44.513H10.093L.373,0Z" transform="translate(42.818)" fill="#89c5cc"/>
        </g>
        <g id="Body" transform="translate(0 76.382) rotate(-8)">
          <path id="Skin-3" data-name="Skin" d="M15.074,17.182C14.057,15.122,6.531,8.866,1.307,5.291-.789,3.856.078,2.022.871,1.532c6.44-3.966,10.68.724,16.254,3.313,3.151,1.463,4.539.039,5.809-1.388,1.191-1.336,2.28-2.672,4.623-1.625-1.487,3.329-4.963,9.517-3.32,13.581,1.1,2.709,18.853,60.139,18.853,60.139l-15.543.058S17.153,21.392,15.074,17.182ZM124.655,52.854l20.91-12.3q7.864-12.367,9.237-10.687c1.374,1.68-.816,3.647-.073,4.93s4.942.548,8.9-.319,3.039,1.073,2.2,2.082a60.982,60.982,0,0,1-14.381,8.252L131.336,64.39Z" transform="translate(166.557 138.1) rotate(180)" fill="#b28b67"/>
          <path id="Clothes_Back" data-name="Clothes Back" d="M0,78.424l6.023,1.583C18.629,46.859,70.148,28.021,74.3,15.58c1.522-4.562-1.632-7.211.228-8.479L67.086.6C65.6,2.05,62.984-1.07,56.808.409S3.521,38.178,0,78.424Z" transform="translate(93.024 90.1) rotate(175.008)" fill="#db2721"/>
          <path id="Clothes_Front" data-name="Clothes Front" d="M48.181,106.633l-.312-4.46C36.318,93.3,7.686,66.783.226,17.421-1.093,8.689,3.829,6.785,3.12,2.877L13.561,0c0,2.877,7.926,4.064,9.969,11.532,1.148,4.195,2.829,9.434,4.838,15.261.189-7.718,1.656-14.817,4.85-20.7C41.19-8.57,87.244,7.515,92.058,22.479,97.886,40.6,71.721,52.124,72.435,97.307l.531,7.594a2.524,2.524,0,0,1-2.342,2.694l-19.749,1.381q-.09.006-.179.006A2.524,2.524,0,0,1,48.181,106.633Z" transform="translate(150.247 108.981) rotate(180)" fill="#ff4133"/>
        </g>
      </g>
    </g>
    <g id="humaaan-4" transform="translate(670.706 642.084)">
      <g id="Head_Front" data-name="Head/Front" transform="translate(63.095)">
        <g id="Head-7" data-name="Head" transform="translate(41.551 23.859)">
          <path id="Head-8" data-name="Head" d="M0,56.184,6.357,26.545C2.812,22.382.412,17.28.813,11.564,1.969-4.906,24.891-1.283,29.349,7.03s3.929,29.4-1.833,30.885c-2.3.593-7.194-.859-12.177-3.863l3.128,22.132Z" transform="translate(0 0)" fill="#b28b67"/>
        </g>
        <path id="hair-3" data-name="hair" d="M56,8.59a4,4,0,0,0-2.8-2.837,3.684,3.684,0,0,0-1.029-.1c-.124,0-.159.041-.217-.046a1.139,1.139,0,0,1-.062-.3,5.605,5.605,0,0,0-.209-.694,5.66,5.66,0,0,0-1.365-2.029A6.87,6.87,0,0,0,46.192.631,6.015,6.015,0,0,0,43.711.97a9.823,9.823,0,0,0-1.2.515c-.118.059-.5.348-.617.329s-.392-.344-.5-.426A7.292,7.292,0,0,0,36.835,0c-1.841.014-3.613.106-5.148,1.228A10.3,10.3,0,0,0,30.758,2c-.155.144-.305.294-.449.45q-.13.141-.252.289c-.138.168-.115.223-.308.106a3.826,3.826,0,0,0-2.457-.553,5.5,5.5,0,0,0-1.483.419c-.161.069-.534.344-.705.346s-.538-.252-.713-.317a5.846,5.846,0,0,0-2.964-.274A7.654,7.654,0,0,0,18.52,3.608a3.908,3.908,0,0,0-1.077.98c-.127.175-.241.36-.385.522-.084.095-.25.192-.3.313a6.382,6.382,0,0,0-1.232-.544,3.034,3.034,0,0,0-1.733.066,6.893,6.893,0,0,0-2.733,1.943,7.762,7.762,0,0,0-1.012,1.359q-.206.35-.379.719a2.675,2.675,0,0,1-.166.375c-.095.138-.158.141-.33.2a5.332,5.332,0,0,0-2.271,1.521,5.236,5.236,0,0,0-1.175,2.493,1.271,1.271,0,0,1-.047.307c-.043.04-.219.022-.285.03a5.991,5.991,0,0,0-.682.12,5.632,5.632,0,0,0-1.2.432A6.271,6.271,0,0,0,.443,18.114a7.449,7.449,0,0,0,.116,5.1,4.981,4.981,0,0,0,.379.747c.091.146.12.146.061.3-.066.17-.185.335-.263.5a7.2,7.2,0,0,0-.543,1.7A8,8,0,0,0,.1,29.411,4.255,4.255,0,0,0,.554,30.7a3.709,3.709,0,0,0,.4.578c.078.093.162.182.248.268a1.659,1.659,0,0,1,.157.146c.1.133.125.024.072.219a8.725,8.725,0,0,1-.347.806c-.107.273-.2.55-.291.83a12.245,12.245,0,0,0-.423,1.73,5.432,5.432,0,0,0,.383,3.36A3.36,3.36,0,0,0,1.7,39.772a3.527,3.527,0,0,0,.624.379c.113.054.258.077.309.186s-.027.352-.046.483a8.057,8.057,0,0,0,.095,3.471,4.8,4.8,0,0,0,1.9,2.551,5.91,5.91,0,0,0,5.909.168,6.2,6.2,0,0,0,1.319-.907c1.012,1.363,3.094,1.32,4.574.931a6.57,6.57,0,0,0,4.173-3.449A2.78,2.78,0,0,0,24.978,43a3.682,3.682,0,0,0,.373-1.212c.03-.221.011-.444.034-.663a3.425,3.425,0,0,1,.323-.821,4.531,4.531,0,0,0,.344-1.636,8.305,8.305,0,0,0-.063-.878,3.018,3.018,0,0,1,.09-.772,3.527,3.527,0,0,1-1.494-.187,2.949,2.949,0,0,1-1.155-.812,6.74,6.74,0,0,1-1.453-2.716c-.657-2.151-.388-4.733,1.776-5.913,1.008-.55,4.027-.548,5.227-.276,1.262.286,2.693,3.071,2.763,3.333.044.162.022.363.17.471.327.237.866-.175,1.108-.378a4.37,4.37,0,0,0,.97-1.291,15.976,15.976,0,0,0,1.331-3.266c.246-.87.4-1.768.725-2.616A4,4,0,0,1,37.657,21.3a14.163,14.163,0,0,1,2.768-1.121,6.869,6.869,0,0,0,2.56-1.407,3.539,3.539,0,0,0,.439-.49c.1-.14.2-.409.353-.5.238-.139.586.222.792.353a9.15,9.15,0,0,1,2.547,2.529,15.738,15.738,0,0,1,1.691,3.011,8.708,8.708,0,0,0,1.138,2.511,4.8,4.8,0,0,0,2.862.217,3.617,3.617,0,0,0,1.561-1.352,2.1,2.1,0,0,0,.177-1.376c-.055-.278-.167-.537-.228-.81a2.524,2.524,0,0,0-.21-.655,1.616,1.616,0,0,0-1.007-.8,4.731,4.731,0,0,0,1.088-1.476,6.334,6.334,0,0,0,.563-1.923,2.335,2.335,0,0,0-.312-1.5,3.943,3.943,0,0,0-1.278-1.061,8.317,8.317,0,0,0,1.78-1.939A6.054,6.054,0,0,0,56,8.59Z" transform="translate(23.084 10.775)" fill="#191847"/>
      </g>
      <g id="Bottom_Skinny_Jeans_1" data-name="Bottom/Skinny Jeans 1" transform="translate(0 143.924)">
        <path id="Leg-3" data-name="Leg" d="M0,0,37,97.92l25.932,72.172H77.715L42.069,0Z" transform="translate(98.49)" fill="#1f28cf"/>
        <path id="Leg-4" data-name="Leg" d="M59.338,0c-.4,33.6-.111,78.833-1.048,80.927S0,128.652,0,128.652l7.621,12.963s68.09-43.921,71.572-49.773,20.97-59.7,30.07-91.842Z" transform="translate(30.009)" fill="#2b44ff"/>
        <g id="Left_Shoe-2" data-name="Left Shoe" transform="translate(40.178 117.587) rotate(50)">
          <path id="Shoe-5" data-name="Shoe" d="M0,21,1,0H22C36.936,10.5,61,17,61,17v4H23L10,19v2Z" transform="translate(0 19)" fill="#191847"/>
        </g>
        <g id="Right_Shoe-4" data-name="Right Shoe" transform="translate(160.046 153.16)">
          <path id="Shoe-6" data-name="Shoe" d="M0,16.163.769,0H16.928C28.421,8.081,46.937,13.084,46.937,13.084v3.079H17.7l-10-1.539v1.539Z" transform="translate(0 14.623)" fill="#191847"/>
        </g>
      </g>
      <g id="Body_Long_Sleeve_1-2" data-name="Body/Long Sleeve 1" transform="translate(16.928 63.111)">
        <path id="Skin-4" data-name="Skin" d="M.944,98.511c-.859-.53-1.8-2.524.473-4.083,5.662-3.883,13.82-10.679,14.923-12.916,2.255-4.576,21.984-63.464,21.984-63.464l16.849.064s-27.714,62.38-28.9,65.323c-1.78,4.413,1.988,11.135,3.6,14.747-2.539,1.137-3.719-.314-5.011-1.765-1.377-1.547-2.882-3.094-6.3-1.5-4.371,2.034-7.984,5.262-12.292,5.262A9.993,9.993,0,0,1,.944,98.511Zm132.816-87.5,30.38-4.145A66.233,66.233,0,0,1,180.912,0c1.436-.042,3.722.481.317,3.319s-6.858,5.979-6.251,7.493,3.772.951,4.3,3.281q.525,2.329-15.414.757L139.21,24.629Z" transform="translate(13.975 39.252)" fill="#997659"/>
        <path id="Clothes_Back-2" data-name="Clothes Back" d="M0,.274,13.219,0c5.8,29.006,25.047,45.964,63.972,36.248l8.544,37.26c-36.475,8-70.123-3.946-80.253-43.367C2.858,19.936.56,9.278,0,.274Z" transform="matrix(0.996, 0.087, -0.087, 0.996, 98.475, 3.575)" fill="#afb9c5"/>
        <path id="Clothes" d="M0,113.138Q13.739,40.019,58,0h1.309l.01.012L79.3,4.591c0,34.388,10.951,56.327,16.568,81.609H41.89c-.76,8.736-1.227,17.716-1.471,26.938Z" transform="translate(32.626)" fill="#c5cfd6"/>
        <path id="Shade-2" data-name="Shade" d="M10.972,50.335H0C1.648,31.4,4.554,14.939,8.883,0c-.592,9.972-.793,18.984-.594,26.787.252,9.933,1.155,17.855,2.683,23.547Z" transform="translate(74.517 35.865)" fill="rgba(0,0,0,0.1)"/>
      </g>
    </g>
  </g>
</svg>
