<svg xmlns="http://www.w3.org/2000/svg" width="46" height="28.337" viewBox="0 0 46 28.337">
  <g id="noun_strikethrough_134110" transform="translate(0.547 -3)">
    <g id="Group_4" data-name="Group 4" transform="translate(-0.375 3)">
      <rect id="Rectangle_4" data-name="Rectangle 4" width="46" height="2" transform="translate(-0.173 14.169)" fill="#777"/>
      <path id="Path_2" data-name="Path 2" d="M9.262,20.629h6.833L12.733,9.479ZM9.609,3h6.358L25.5,31.337H19.4l-1.736-5.825H7.746L5.883,31.337H0Z" transform="translate(0.158 -3)" fill="#777" fill-rule="evenodd"/>
      <path id="Path_3" data-name="Path 3" d="M18.753,13.93a8.538,8.538,0,0,0,2.2-.493,1.687,1.687,0,0,0,1.185-1.6,1.9,1.9,0,0,0-.9-1.823,5.574,5.574,0,0,0-2.652-.5A3.427,3.427,0,0,0,15.8,10.5a4.13,4.13,0,0,0-.777,1.971H9.68a8.323,8.323,0,0,1,1.554-4.633Q13.429,5,18.772,5A13.233,13.233,0,0,1,24.95,6.4q2.7,1.4,2.7,5.283v9.856q0,1.025.039,2.484a3.162,3.162,0,0,0,.33,1.5,1.99,1.99,0,0,0,.816.651V27H22.813a6.344,6.344,0,0,1-.35-1.222q-.1-.572-.155-1.3a11.405,11.405,0,0,1-2.642,2.149,7.858,7.858,0,0,1-4.041,1.045A6.886,6.886,0,0,1,10.875,26,5.985,5.985,0,0,1,9,21.283a6.15,6.15,0,0,1,3.011-5.736,13.224,13.224,0,0,1,4.857-1.38Zm3.361,2.622a5.982,5.982,0,0,1-1.059.542,8.757,8.757,0,0,1-1.467.384l-1.243.237a7.947,7.947,0,0,0-2.506.769,2.586,2.586,0,0,0-1.282,2.385,2.53,2.53,0,0,0,.787,2.08,2.933,2.933,0,0,0,1.914.641,5.582,5.582,0,0,0,3.293-1.065q1.506-1.064,1.564-3.883Z" transform="translate(16.661 0.667)" fill="#777" fill-rule="evenodd"/>
    </g>
  </g>
</svg>
