<svg id="todo-image2" xmlns="http://www.w3.org/2000/svg" width="188.967" height="263.603" viewBox="0 0 188.967 263.603">
  <g id="Head_Front" data-name="Head/Front" transform="translate(96.344)">
    <g id="Head" transform="translate(2.071 5.57)">
      <path id="Head-2" data-name="Head" d="M0,0,6.621,30.86C2.929,35.194.429,40.506.847,46.458c1.2,17.149,25.076,13.376,29.719,4.721s4.092-30.61-1.909-32.157c-2.394-.617-7.492.894-12.681,4.022L19.233,0Z" transform="translate(33.656 58.498) rotate(180)" fill="#b28b67"/>
    </g>
    <path id="Hair" d="M30.585,37.118c2.414-10.739,9.29-18.059,8.24-22.859a8.17,8.17,0,0,0-5.6-5.97S30.874-1.226,18.054.195-2.592,6.94.787,18.656c3.106,0,6.856-1.123,12.042.8,2.468.916,3.53,5.682,3.53,5.682H18.7s3.411-5.655,6.727-4.156,1.508,7.282,1.508,7.282l1.154,8.854Z" transform="translate(0 -0.05)" fill="#191847"/>
  </g>
  <g id="Bottom_Skinny_Jeans_1" data-name="Bottom/Skinny Jeans 1" transform="translate(0 130.579)">
    <g id="Seat" transform="translate(96.813 33.657)">
      <g id="Seat-2" data-name="Seat" transform="translate(0)">
        <path id="Seat_Stuff" data-name="Seat Stuff" d="M70.019,0H8.112L0,99.367H92.155Z" fill="#c5cfd6"/>
        <path id="Seat_Stuff-2" data-name="Seat Stuff" d="M30.436,0H11.4L0,99.367H52.571Z" transform="translate(39.583)" fill="rgba(0,0,0,0.1)"/>
      </g>
    </g>
    <path id="Skin" d="M45.782,4.291c-.8,10.137-2.293,45.231-.8,61.475.629,6.857,1.308,13.38,1.975,19.174C32.645,59.2,9.229,21.554,9.229,21.554L0,25.771S10.871,61.586,17.828,76.34c7.941,16.842,15.387,31.264,18.521,36.345,4.929,7.991,13.51,5.2,18.045.365,6.6,3.963,17.675-1.129,17.667-6.8C72.037,89.293,56.559,9.36,55.751,4.307A5.487,5.487,0,0,0,50.244,0,4.281,4.281,0,0,0,45.782,4.291Z" transform="translate(88.738 129.683) rotate(180)" fill="#b28b67"/>
    <path id="LegLower" d="M0,0,4.1,81.345c2.956,14.066,27.972,7.538,27.962,0C32.04,64.232,21.76,5.115,21.753.017Z" transform="translate(88.078 90.653) rotate(160)" fill="#1f28cf"/>
    <g id="Right_Shoe" data-name="Right Shoe" transform="translate(96.851 108.639) rotate(150)">
      <path id="shoe" d="M3.585,12.8a1.6,1.6,0,0,1-2.056-1.081L0,6.326A51.48,51.48,0,0,1,.722,0h45.2s1.762,5.824-2.034,6.289-6.306.839-6.306.839L16.572,16.493a.8.8,0,0,1-1.067-.426l-1.35-3.276s-3.514-1.64-5.711-1.64Z" transform="translate(0 0)" fill="#e4e4e4"/>
    </g>
    <g id="Right_Shoe-2" data-name="Right Shoe" transform="translate(0 116.461)">
      <path id="shoe-2" data-name="shoe" d="M42.743,4.1A1.6,1.6,0,0,1,44.8,5.18l1.529,5.389a51.48,51.48,0,0,1-.722,6.326H.408s-1.762-5.824,2.034-6.289,6.306-.839,6.306-.839L29.756.4a.8.8,0,0,1,1.067.426L32.173,4.1s3.514,1.64,5.711,1.64Z" transform="translate(0 -0.332)" fill="#e4e4e4"/>
    </g>
    <path id="Leg_and_Butt" data-name="Leg and Butt" d="M0,29.2c0,21.289,10.11,70.949,10.117,75.637l21.753.017s-4.776-66.466-3.387-67.182,56.936,5.546,73.6,5.546C126.1,43.213,136.04,28.063,136.846,0H89.257c-9.69,1.037-60.231,11.231-79,14.735C2.22,16.236,0,23.331,0,29.2Z" transform="translate(14.458 0)" fill="#2b44ff"/>
  </g>
  <g id="Body_Long_Sleeve_1" data-name="Body/Long Sleeve 1" transform="translate(21.289 29.43)">
    <path id="Skin-2" data-name="Skin" d="M25.312,10.816,0,21.313,5.651,35.28,31.212,16.51A68.8,68.8,0,0,0,48.589,9.527c1.1-1,2.427-3.028-2.13-2.678s-9.366.514-9.994-1.041S38.593,2.4,37.322.3a.6.6,0,0,0-.555-.3Q34.521,0,25.312,10.816ZM8.334,88.833l30.375,9.118a68.8,68.8,0,0,0,16.034,9.675c1.46.275,3.879.115.857-3.313s-6.047-7.17-5.184-8.608,4.007-.354,4.917-2.631q.91-2.277-15.626-3.262l-23.617-13.9Z" transform="translate(57.048 107.716) rotate(180)" fill="#b28b67"/>
    <path id="Coat_Back" data-name="Coat Back" d="M10.811,62.8c20.163-21.468,44.756-35.477,78.3-47.9L81.659,0C47.053,3.263,28.552,5.869,14.048,27.37,10.408,32.766,3.9,51.334,0,60.976Z" transform="matrix(-0.966, 0.259, -0.259, -0.966, 117.796, 79.744)" fill="#2026a2"/>
    <path id="Shirt" d="M61.7,91.353H0S20.965,27.412,21.42,3.583c.015-.81,1.511-2.237,2.173-2.05C30.852,3.583,39.128,0,39.128,0,53.756,23.526,58.815,52.492,61.7,91.353Z" transform="translate(68.311 17.008)" fill="#f2f2f2"/>
    <path id="Coat_Front" data-name="Coat Front" d="M1.139,0c-5.225,35.117,8.508,83.807,21.24,108.366a4.341,4.341,0,0,0,3.959,2.706H35.9l.013-.038c3.221-.026,6.806-.155,10.718-.283,17.567-.578,41.692-1.156,68.76,7.533l3.268-16.326C93.643,85.871,68.316,73.409,46.123,75.179,55.759,33.841,55.315,0,34.04,0Z" transform="translate(138.085 128.079) rotate(180)" fill="#1f28cf"/>
  </g>
</svg>
